<?xml version="1.0" encoding="UTF-8"?>
<svg xmlns="http://www.w3.org/2000/svg" xmlns:xlink="http://www.w3.org/1999/xlink" width="512px" height="512px" viewBox="0 0 512 512" version="1.1">
<defs>
<clipPath id="clip1">
  <path d="M 89.316406 42.957031 L 422.683594 42.957031 L 422.683594 379.5 L 89.316406 379.5 Z M 89.316406 42.957031 "/>
</clipPath>
</defs>
<g id="surface1">
<path style=" stroke:none;fill-rule:nonzero;fill:rgb(12.941176%,12.941176%,12.941176%);fill-opacity:1;" d="M 81.707031 395.652344 C 82.339844 395.652344 82.917969 395.949219 83.445312 396.542969 C 83.972656 397.132812 84.386719 398.371094 84.6875 400.253906 C 84.992188 402.136719 85.453125 404.824219 86.070312 408.320312 C 86.691406 411.820312 87.382812 415.550781 88.148438 419.523438 C 88.910156 423.496094 89.714844 427.59375 90.558594 431.816406 C 91.398438 436.039062 92.242188 440.136719 93.085938 444.105469 C 95.113281 453.410156 96.695312 460.210938 97.828125 464.511719 C 98.089844 465.605469 98.019531 466.480469 97.609375 467.132812 C 97.203125 467.785156 96.746094 468.109375 96.246094 468.109375 C 95.746094 468.109375 95.292969 467.949219 94.882812 467.621094 C 94.476562 467.296875 94.113281 466.332031 93.796875 464.730469 C 93.480469 463.132812 92.96875 460.539062 92.257812 456.953125 C 91.542969 453.367188 90.78125 449.515625 89.964844 445.394531 C 89.9375 445.21875 89.910156 445.054688 89.886719 444.90625 C 88.09375 444.816406 85.566406 444.773438 82.296875 444.773438 C 78.453125 444.773438 75.515625 444.832031 73.488281 444.949219 C 73.460938 445.128906 73.433594 445.304688 73.40625 445.484375 C 71.800781 454.195312 70.617188 460.9375 69.851562 465.710938 C 69.589844 467.222656 68.890625 467.976562 67.757812 467.976562 C 66.570312 467.976562 65.847656 467.324219 65.585938 466.019531 C 65.503906 465.636719 65.585938 465.027344 65.820312 464.199219 C 66.058594 463.367188 66.40625 461.9375 66.867188 459.910156 C 67.328125 457.878906 67.828125 455.550781 68.371094 452.929688 C 68.910156 450.308594 69.484375 447.441406 70.089844 444.328125 C 70.695312 441.214844 71.3125 438.015625 71.945312 434.726562 C 72.578125 431.4375 73.210938 428.125 73.84375 424.792969 C 74.476562 421.457031 75.082031 418.234375 75.660156 415.121094 C 76.238281 412.011719 76.785156 409.09375 77.300781 406.367188 C 77.8125 403.640625 78.230469 401.476562 78.542969 399.875 C 79.046875 397.058594 80.097656 395.652344 81.707031 395.652344 M 74.238281 440.816406 C 76.238281 440.933594 78.941406 440.996094 82.339844 440.996094 C 85.15625 440.996094 87.410156 440.949219 89.09375 440.859375 C 88.542969 438.164062 87.988281 435.394531 87.433594 432.546875 C 86.566406 428.132812 85.734375 423.851562 84.945312 419.703125 C 83.628906 412.914062 82.496094 406.957031 81.546875 401.832031 C 80.941406 405.238281 80.074219 409.878906 78.941406 415.746094 C 77.464844 423.570312 76.34375 429.527344 75.582031 433.617188 C 75.132812 436.074219 74.6875 438.476562 74.238281 440.816406 M 113.476562 395.832031 C 114.210938 395.832031 118.953125 395.710938 127.699219 395.476562 C 128.910156 395.476562 129.742188 395.992188 130.1875 397.03125 C 130.292969 397.328125 130.347656 397.667969 130.347656 398.054688 C 130.347656 398.4375 130.148438 398.832031 129.753906 399.230469 C 129.359375 399.632812 128.621094 399.816406 127.542969 399.785156 C 126.460938 399.757812 125.414062 399.710938 124.398438 399.652344 C 123.386719 399.59375 122.445312 399.550781 121.574219 399.519531 C 120.019531 399.460938 118.691406 399.445312 117.585938 399.476562 C 117.375 406.292969 117.269531 413.6875 117.269531 421.65625 C 117.269531 430.191406 117.273438 436.039062 117.289062 439.195312 C 117.300781 442.351562 117.332031 445.367188 117.386719 448.238281 C 117.464844 455.589844 117.542969 461.042969 117.625 464.597656 C 117.648438 465.605469 117.445312 466.355469 117.011719 466.84375 C 116.578125 467.332031 116.101562 467.578125 115.589844 467.578125 C 115.074219 467.578125 114.574219 467.347656 114.085938 466.886719 C 113.601562 466.429688 113.355469 465.738281 113.355469 464.820312 L 113.316406 458.996094 L 113.710938 416.546875 C 113.710938 408.632812 113.621094 402.941406 113.433594 399.476562 C 112.039062 399.445312 110.378906 399.503906 108.457031 399.652344 C 106.191406 399.832031 104.550781 399.957031 103.535156 400.03125 C 102.523438 400.105469 101.804688 399.921875 101.382812 399.476562 C 100.960938 399.03125 100.75 398.519531 100.75 397.941406 C 100.75 397.363281 100.960938 396.792969 101.382812 396.230469 C 101.804688 395.667969 102.484375 395.40625 103.417969 395.453125 C 104.355469 395.496094 105.164062 395.535156 105.847656 395.5625 C 106.535156 395.59375 107.132812 395.621094 107.648438 395.652344 C 108.160156 395.683594 108.613281 395.710938 109.007812 395.742188 C 109.40625 395.769531 109.804688 395.792969 110.214844 395.808594 C 110.625 395.824219 111.089844 395.832031 111.617188 395.832031 L 113.476562 395.832031 M 152.199219 451.972656 L 152.472656 464.910156 C 152.472656 466.242188 151.910156 467.148438 150.777344 467.621094 C 150.484375 467.738281 150.144531 467.800781 149.75 467.800781 C 149.351562 467.800781 148.929688 467.554688 148.484375 467.066406 C 148.035156 466.578125 147.851562 465.804688 147.929688 464.753906 C 148.007812 463.703125 148.101562 462.65625 148.207031 461.621094 C 148.3125 460.582031 148.40625 459.53125 148.484375 458.464844 C 148.667969 455.976562 148.761719 454.035156 148.761719 452.640625 C 148.761719 451.25 148.746094 450.046875 148.722656 449.039062 C 148.695312 448.03125 148.65625 446.996094 148.601562 445.929688 C 148.574219 445.070312 148.535156 444.105469 148.484375 443.039062 C 147.613281 440.550781 146.652344 437.898438 145.597656 435.082031 C 144.253906 431.40625 142.859375 427.585938 141.410156 423.613281 C 135.457031 407.492188 132.480469 398.765625 132.480469 397.429688 C 132.480469 396.691406 132.679688 396.097656 133.074219 395.652344 C 133.46875 395.207031 133.976562 394.972656 134.59375 394.941406 C 135.214844 394.910156 135.695312 395.140625 136.035156 395.628906 C 136.378906 396.121094 136.886719 397.667969 137.558594 400.277344 C 138.230469 402.882812 139.222656 406.238281 140.542969 410.34375 C 141.859375 414.449219 143.1875 418.367188 144.53125 422.101562 C 146.296875 427.050781 148.285156 432.3125 150.5 437.882812 C 150.894531 436.667969 151.316406 435.378906 151.761719 434.015625 C 152.527344 431.792969 153.3125 429.457031 154.113281 427.015625 C 154.917969 424.570312 155.734375 422.066406 156.5625 419.5 C 157.394531 416.9375 158.191406 414.425781 158.953125 411.96875 C 160.796875 405.949219 161.972656 401.941406 162.472656 399.941406 C 162.972656 397.941406 163.394531 396.5625 163.734375 395.808594 C 164.078125 395.050781 164.59375 394.675781 165.277344 394.675781 C 166.542969 394.675781 167.171875 395.371094 167.171875 396.765625 C 167.171875 397.832031 166.230469 401.121094 164.347656 406.632812 C 162.464844 412.144531 161.253906 415.765625 160.714844 417.5 C 160.171875 419.234375 159.652344 420.863281 159.152344 422.390625 C 158.652344 423.917969 158.113281 425.546875 157.53125 427.28125 C 156.953125 429.015625 156.351562 430.792969 155.734375 432.613281 C 155.117188 434.4375 154.527344 436.179688 153.976562 437.839844 C 153.34375 439.617188 152.816406 441.113281 152.394531 442.328125 C 152.265625 447.601562 152.199219 450.820312 152.199219 451.972656 M 179.976562 448.105469 C 180.1875 455.25 180.34375 460.746094 180.449219 464.597656 C 180.476562 465.605469 180.257812 466.355469 179.796875 466.84375 C 179.335938 467.332031 178.835938 467.578125 178.296875 467.578125 C 177.757812 467.578125 177.277344 467.347656 176.855469 466.886719 C 176.433594 466.429688 176.222656 465.695312 176.222656 464.6875 L 176.222656 454.640625 L 176.183594 440.859375 L 176.183594 428.503906 C 176.183594 420.441406 176.125 415.316406 176.003906 413.121094 C 175.886719 410.929688 175.800781 409.269531 175.746094 408.144531 C 175.695312 407.019531 175.628906 405.871094 175.550781 404.699219 C 175.472656 403.527344 175.398438 402.378906 175.332031 401.253906 C 175.265625 400.128906 175.332031 399.355469 175.53125 398.941406 C 175.726562 398.527344 175.972656 398.222656 176.261719 398.03125 C 176.550781 397.839844 176.855469 397.710938 177.171875 397.652344 C 177.488281 397.59375 178.160156 397.414062 179.1875 397.121094 C 182.425781 396.230469 185.296875 395.785156 187.800781 395.785156 C 190.300781 395.785156 192.421875 396.140625 194.160156 396.851562 C 195.898438 397.5625 197.386719 398.644531 198.625 400.097656 C 201.261719 403.148438 202.578125 407.507812 202.578125 413.167969 C 202.578125 420.871094 200.179688 427.941406 195.386719 434.371094 C 191.515625 439.558594 186.378906 444.136719 179.976562 448.105469 M 179.859375 443.882812 C 192.582031 436.121094 198.941406 426.015625 198.941406 413.566406 C 198.941406 406.722656 196.835938 402.320312 192.621094 400.363281 C 189.484375 398.914062 185.679688 399.046875 181.199219 400.765625 C 180.675781 400.972656 180.171875 401.179688 179.699219 401.386719 C 179.515625 406.574219 179.421875 411.90625 179.421875 417.390625 L 179.421875 430.816406 C 179.421875 431.378906 179.4375 431.925781 179.460938 432.460938 C 179.488281 432.992188 179.507812 433.5625 179.523438 434.171875 C 179.535156 434.777344 179.5625 435.5625 179.601562 436.527344 C 179.640625 437.488281 179.6875 438.699219 179.738281 440.148438 C 179.765625 441.1875 179.804688 442.433594 179.859375 443.882812 M 215.398438 409.367188 C 215.386719 410.980469 215.378906 417.480469 215.378906 428.859375 C 215.378906 440.238281 215.539062 452.210938 215.855469 464.777344 C 215.878906 465.726562 215.636719 466.449219 215.125 466.953125 C 214.609375 467.457031 214.070312 467.710938 213.503906 467.710938 C 212.9375 467.710938 212.4375 467.488281 212 467.042969 C 211.566406 466.597656 211.375 465.605469 211.429688 464.066406 C 211.480469 462.523438 211.535156 460.390625 211.585938 457.664062 C 211.640625 454.9375 211.691406 452.035156 211.746094 448.953125 C 211.851562 442.847656 211.902344 437.148438 211.902344 431.859375 C 211.902344 426.570312 211.894531 422.449219 211.882812 419.5 C 211.871094 416.554688 211.835938 413.832031 211.785156 411.34375 C 211.707031 405.832031 211.558594 401.429688 211.351562 398.140625 C 211.269531 397.195312 211.421875 396.488281 211.804688 396.03125 C 212.1875 395.570312 212.679688 395.339844 213.285156 395.339844 C 213.890625 395.339844 214.457031 395.570312 214.984375 396.03125 C 215.511719 396.488281 215.753906 397.269531 215.714844 398.363281 C 215.675781 399.460938 215.636719 400.542969 215.597656 401.609375 C 215.558594 402.675781 215.519531 403.832031 215.480469 405.078125 C 215.4375 406.320312 215.414062 407.75 215.398438 409.367188 M 256.199219 397.386719 C 256.25 397.859375 255.960938 398.933594 255.328125 400.609375 C 254.695312 402.285156 253.328125 405.253906 251.21875 409.523438 C 249.269531 413.464844 247.015625 418.058594 244.460938 423.300781 C 246.042969 428.457031 247.820312 433.761719 249.796875 439.214844 C 251.902344 445.085938 253.40625 449.261719 254.300781 451.753906 C 256.433594 457.707031 257.75 461.359375 258.253906 462.710938 C 258.753906 464.058594 258.976562 464.960938 258.925781 465.421875 C 258.871094 465.878906 258.738281 466.289062 258.527344 466.644531 C 258.082031 467.355469 257.554688 467.710938 256.949219 467.710938 C 255.84375 467.710938 255.078125 467.101562 254.65625 465.886719 C 249.046875 447.722656 244.9375 434.933594 242.328125 427.523438 C 239.195312 434.132812 236.492188 439.453125 234.226562 443.484375 C 234.226562 452.253906 234.28125 459.351562 234.386719 464.777344 C 234.414062 465.726562 234.183594 466.449219 233.695312 466.953125 C 233.207031 467.457031 232.675781 467.710938 232.09375 467.710938 C 231.515625 467.710938 230.996094 467.488281 230.535156 467.042969 C 230.074219 466.597656 229.867188 465.554688 229.921875 463.910156 C 229.972656 462.265625 230.039062 459.902344 230.117188 456.820312 C 230.199219 453.738281 230.277344 450.449219 230.355469 446.949219 C 230.515625 439.957031 230.59375 433.710938 230.59375 428.214844 C 230.59375 422.71875 230.578125 418.730469 230.554688 416.257812 C 230.527344 413.78125 230.488281 411.523438 230.433594 409.476562 C 230.304688 406.011719 230.066406 402.277344 229.722656 398.273438 C 229.644531 397.328125 229.863281 396.625 230.375 396.164062 C 230.890625 395.703125 231.46875 395.476562 232.113281 395.476562 C 232.757812 395.476562 233.351562 395.703125 233.890625 396.164062 C 234.433594 396.625 234.6875 397.328125 234.664062 398.273438 C 234.371094 405.890625 234.226562 418.84375 234.226562 437.128906 C 240.65625 424.796875 245.871094 413.269531 249.875 402.542969 C 250.664062 400.4375 251.238281 398.816406 251.59375 397.675781 C 251.949219 396.535156 252.320312 395.816406 252.699219 395.519531 C 253.082031 395.222656 253.472656 395.074219 253.867188 395.074219 C 254.261719 395.074219 254.625 395.171875 254.953125 395.363281 C 255.28125 395.554688 255.558594 395.824219 255.78125 396.164062 C 256.007812 396.503906 256.144531 396.914062 256.199219 397.386719 M 290.691406 418.277344 L 290.652344 411.253906 C 290.652344 410.128906 290.648438 408.921875 290.632812 407.632812 C 290.621094 406.34375 290.605469 404.949219 290.59375 403.453125 C 290.582031 401.957031 290.5625 400.503906 290.535156 399.097656 C 290.507812 397.691406 290.730469 396.765625 291.207031 396.320312 C 291.679688 395.875 292.179688 395.652344 292.707031 395.652344 C 293.234375 395.652344 293.714844 395.875 294.148438 396.320312 C 294.585938 396.765625 294.789062 397.460938 294.761719 398.410156 C 294.339844 414.855469 294.128906 427.746094 294.128906 437.082031 C 294.128906 452.109375 294.222656 461.382812 294.40625 464.910156 C 294.460938 465.859375 294.269531 466.570312 293.835938 467.042969 C 293.398438 467.519531 292.925781 467.753906 292.410156 467.753906 C 291.898438 467.753906 291.4375 467.523438 291.027344 467.066406 C 290.621094 466.605469 290.429688 465.902344 290.457031 464.953125 C 290.5625 455.203125 290.640625 446.832031 290.691406 439.839844 C 288.347656 439.601562 285.148438 439.484375 281.089844 439.484375 C 276.875 439.484375 273.753906 439.617188 271.726562 439.882812 C 271.753906 448.832031 271.84375 457.101562 272.003906 464.6875 C 272.03125 465.664062 271.804688 466.40625 271.332031 466.910156 C 270.855469 467.414062 270.351562 467.667969 269.808594 467.667969 C 269.269531 467.667969 268.789062 467.4375 268.367188 466.976562 C 267.945312 466.519531 267.761719 465.472656 267.816406 463.84375 C 267.867188 462.214844 267.917969 459.871094 267.972656 456.820312 C 268.023438 453.765625 268.078125 450.523438 268.128906 447.085938 C 268.183594 441.304688 268.210938 435.394531 268.210938 429.347656 C 268.210938 423.300781 268.203125 419.042969 268.191406 416.566406 C 268.175781 414.09375 268.15625 411.832031 268.128906 409.789062 C 268.050781 406.589844 267.894531 402.882812 267.65625 398.675781 C 267.605469 397.726562 267.816406 397.023438 268.289062 396.5625 C 268.761719 396.105469 269.289062 395.875 269.871094 395.875 C 270.449219 395.875 270.976562 396.105469 271.449219 396.5625 C 271.925781 397.023438 272.132812 397.941406 272.082031 399.320312 C 272.03125 400.699219 271.976562 402.363281 271.925781 404.320312 C 271.871094 406.277344 271.832031 408.433594 271.804688 410.789062 C 271.777344 413.144531 271.765625 415.761719 271.765625 418.632812 C 271.738281 421.332031 271.726562 427.007812 271.726562 435.660156 C 273.464844 435.957031 276.613281 436.105469 281.171875 436.105469 C 285.542969 436.105469 288.71875 435.957031 290.691406 435.660156 C 290.691406 434.535156 290.691406 433.453125 290.691406 432.414062 L 290.691406 418.277344 M 320.722656 468.734375 C 315.21875 468.734375 311.167969 465.53125 308.574219 459.132812 C 305.976562 452.730469 304.679688 443.277344 304.679688 430.769531 C 304.679688 420.902344 306.167969 412.617188 309.144531 405.921875 C 310.621094 402.660156 312.414062 400.0625 314.519531 398.121094 C 316.625 396.179688 319.058594 395.207031 321.808594 395.207031 C 324.5625 395.207031 326.964844 396.015625 329.019531 397.628906 C 331.074219 399.246094 332.773438 401.578125 334.117188 404.632812 C 336.753906 410.617188 338.097656 419.332031 338.148438 430.769531 C 338.203125 442.800781 336.671875 452.167969 333.566406 458.863281 C 330.507812 465.445312 326.230469 468.734375 320.722656 468.734375 M 326.019531 400.429688 C 324.78125 399.558594 323.410156 399.121094 321.910156 399.121094 C 320.40625 399.121094 319.050781 399.558594 317.839844 400.429688 C 316.625 401.304688 315.527344 402.511719 314.539062 404.054688 C 313.550781 405.59375 312.683594 407.410156 311.929688 409.5 C 311.179688 411.589844 310.542969 413.832031 310.015625 416.234375 C 308.988281 421.152344 308.472656 426.066406 308.472656 430.96875 C 308.472656 435.875 308.636719 439.988281 308.96875 443.304688 C 309.296875 446.625 309.75 449.492188 310.332031 451.90625 C 310.910156 454.324219 311.601562 456.339844 312.40625 457.953125 C 313.210938 459.566406 314.070312 460.863281 314.992188 461.84375 C 316.707031 463.589844 318.746094 464.464844 321.117188 464.464844 C 328.125 464.464844 332.378906 457.21875 333.882812 442.726562 C 334.222656 439.410156 334.394531 436.03125 334.394531 432.59375 C 334.394531 429.15625 334.300781 426.148438 334.117188 423.570312 C 333.933594 420.992188 333.636719 418.507812 333.230469 416.125 C 332.820312 413.738281 332.292969 411.507812 331.648438 409.433594 C 331.003906 407.359375 330.214844 405.558594 329.277344 404.03125 C 328.34375 402.503906 327.257812 401.304688 326.019531 400.429688 M 348.976562 444.683594 L 349.054688 425.878906 C 349.054688 415.210938 348.75 406.171875 348.144531 398.765625 C 348.066406 397.816406 348.277344 397.113281 348.777344 396.652344 C 349.277344 396.195312 349.851562 395.964844 350.496094 395.964844 C 351.140625 395.964844 351.726562 396.195312 352.253906 396.652344 C 352.78125 397.113281 353.019531 398.121094 352.964844 399.675781 C 352.914062 401.230469 352.855469 403.203125 352.789062 405.585938 C 352.722656 407.972656 352.664062 410.5 352.609375 413.167969 C 352.503906 418.5 352.453125 423.332031 352.453125 427.660156 C 352.453125 431.984375 352.460938 434.941406 352.472656 436.527344 C 352.484375 438.113281 352.503906 439.644531 352.53125 441.128906 C 352.664062 449.011719 353.058594 454.003906 353.71875 456.109375 C 354.375 458.210938 355.140625 459.828125 356.007812 460.953125 C 357.746094 463.207031 359.988281 464.332031 362.726562 464.332031 C 365.542969 464.332031 367.875 463.160156 369.71875 460.820312 C 371.617188 458.390625 372.722656 454.996094 373.039062 450.640625 C 373.328125 445.304688 373.472656 441.023438 373.472656 437.792969 C 373.472656 434.5625 373.46875 431.769531 373.453125 429.414062 C 373.441406 427.058594 373.40625 424.414062 373.355469 421.480469 C 373.144531 412.945312 372.933594 405.285156 372.722656 398.496094 C 372.695312 397.550781 372.921875 396.851562 373.394531 396.410156 C 373.867188 395.964844 374.410156 395.742188 375.015625 395.742188 C 375.621094 395.742188 376.171875 395.964844 376.675781 396.410156 C 377.175781 396.851562 377.410156 397.550781 377.386719 398.496094 C 377.28125 402.914062 377.222656 407.269531 377.207031 411.566406 C 377.195312 415.863281 377.175781 420.132812 377.148438 424.367188 C 377.097656 434.652344 376.925781 442.039062 376.636719 446.527344 C 376.34375 451.019531 375.902344 454.40625 375.3125 456.6875 C 374.71875 458.96875 373.867188 461 372.761719 462.777344 C 370.285156 466.746094 366.953125 468.734375 362.765625 468.734375 C 355.835938 468.734375 351.515625 464.421875 349.804688 455.796875 C 349.25 453.101562 348.976562 450.09375 348.976562 446.773438 L 348.976562 444.683594 M 389.160156 447.308594 C 390.082031 447.308594 390.660156 447.707031 390.898438 448.507812 C 391.136719 449.308594 391.253906 450.625 391.253906 452.464844 C 391.253906 454.300781 391.480469 456.019531 391.925781 457.621094 C 392.375 459.21875 392.992188 460.570312 393.785156 461.664062 C 395.390625 463.859375 397.617188 464.953125 400.460938 464.953125 C 403.304688 464.953125 405.570312 463.777344 407.257812 461.421875 C 408.945312 459.066406 409.785156 455.679688 409.785156 451.261719 C 409.785156 445.367188 407.5625 440.121094 403.109375 435.527344 C 401.84375 434.222656 400.546875 432.933594 399.214844 431.660156 C 397.886719 430.386719 396.589844 429.066406 395.324219 427.703125 C 394.058594 426.339844 392.925781 424.828125 391.925781 423.167969 C 389.738281 419.523438 388.648438 415.375 388.648438 410.722656 C 388.648438 405.949219 389.898438 402.097656 392.402344 399.164062 C 394.875 396.261719 397.984375 394.808594 401.726562 394.808594 C 404.941406 394.808594 407.574219 396.023438 409.628906 398.453125 C 411.921875 401.238281 412.972656 405.089844 412.789062 410.011719 C 412.761719 410.246094 412.757812 410.5 412.769531 410.765625 C 412.78125 411.035156 412.757812 411.535156 412.691406 412.277344 C 412.625 413.019531 412.347656 413.679688 411.859375 414.257812 C 411.375 414.835938 410.847656 415.121094 410.28125 415.121094 C 409.714844 415.121094 409.234375 414.835938 408.839844 414.257812 C 408.441406 413.679688 408.3125 412.914062 408.441406 411.96875 C 408.785156 409.804688 408.957031 408.167969 408.957031 407.054688 C 408.957031 405.945312 408.777344 404.882812 408.421875 403.875 C 408.066406 402.867188 407.5625 401.980469 406.902344 401.210938 C 405.480469 399.578125 403.636719 398.765625 401.371094 398.765625 C 398.867188 398.765625 396.828125 399.726562 395.246094 401.652344 C 393.507812 403.789062 392.636719 406.410156 392.636719 409.523438 C 392.636719 412.632812 392.941406 415.144531 393.546875 417.058594 C 394.152344 418.96875 394.949219 420.695312 395.9375 422.234375 C 396.925781 423.777344 398.050781 425.183594 399.316406 426.457031 C 400.578125 427.734375 401.863281 428.992188 403.167969 430.238281 C 404.472656 431.480469 405.757812 432.761719 407.019531 434.082031 C 408.285156 435.402344 409.417969 436.859375 410.417969 438.460938 C 412.605469 442.074219 413.699219 446.238281 413.699219 450.953125 C 413.699219 456.464844 412.433594 460.863281 409.90625 464.152344 C 407.402344 467.414062 404.058594 469.042969 399.867188 469.042969 C 395.96875 469.042969 392.796875 467.355469 390.347656 463.976562 C 388.027344 460.804688 386.867188 457.234375 386.867188 453.261719 C 386.867188 449.292969 387.632812 447.308594 389.160156 447.308594 M 428.632812 443.304688 L 428.714844 459.085938 C 428.714844 460.507812 428.714844 461.722656 428.714844 462.730469 C 428.738281 463.175781 428.753906 463.5625 428.753906 463.886719 C 435.390625 463.886719 439.804688 463.769531 441.988281 463.53125 C 444.253906 463.265625 445.574219 463.191406 445.941406 463.308594 C 446.308594 463.429688 446.625 463.621094 446.890625 463.886719 C 447.417969 464.421875 447.679688 465.007812 447.679688 465.644531 C 447.679688 466.28125 447.429688 466.828125 446.929688 467.289062 C 446.429688 467.746094 445.730469 467.949219 444.835938 467.886719 C 440.515625 467.503906 436.617188 467.4375 433.140625 467.6875 C 429.660156 467.941406 427.710938 468.101562 427.292969 468.175781 C 426.871094 468.25 426.496094 468.25 426.164062 468.175781 C 425.835938 468.101562 425.539062 467.949219 425.277344 467.710938 C 424.671875 467.207031 424.394531 466.464844 424.445312 465.488281 C 424.839844 456.921875 425.039062 447.449219 425.039062 437.058594 C 425.039062 426.671875 425.046875 420.140625 425.058594 417.457031 C 425.070312 414.773438 425.078125 412.324219 425.078125 410.101562 C 425.027344 405.328125 424.933594 401.957031 424.800781 399.988281 C 424.671875 398.015625 424.703125 396.839844 424.902344 396.453125 C 425.097656 396.066406 425.339844 395.785156 425.632812 395.609375 C 426.027344 395.402344 426.527344 395.355469 427.132812 395.476562 C 428.238281 395.683594 429.703125 395.785156 431.519531 395.785156 C 435.023438 395.785156 437.414062 395.703125 438.691406 395.542969 C 439.96875 395.378906 440.792969 395.363281 441.160156 395.496094 C 441.527344 395.628906 441.832031 395.816406 442.070312 396.054688 C 442.597656 396.527344 442.859375 397.105469 442.859375 397.785156 C 442.859375 398.46875 442.621094 399.03125 442.148438 399.476562 C 441.675781 399.921875 441.027344 400.121094 440.210938 400.074219 C 439.394531 400.03125 438.527344 399.972656 437.605469 399.898438 C 436.683594 399.824219 435.695312 399.757812 434.640625 399.699219 C 432.429688 399.609375 430.503906 399.636719 428.871094 399.785156 C 428.871094 402.363281 428.859375 404.929688 428.832031 407.476562 C 428.804688 410.5 428.78125 413.566406 428.753906 416.679688 C 428.675781 425.035156 428.632812 431.199219 428.632812 435.171875 C 431.925781 435.171875 434.351562 435.082031 435.90625 434.90625 C 437.589844 434.695312 438.652344 434.785156 439.085938 435.171875 C 439.519531 435.554688 439.738281 436.074219 439.738281 436.726562 C 439.738281 438.355469 438.382812 439.140625 435.667969 439.082031 C 435.113281 439.054688 434.613281 439.039062 434.167969 439.039062 L 430.964844 438.992188 L 428.632812 438.992188 L 428.632812 443.304688 "/>
<g clip-path="url(#clip1)" clip-rule="nonzero">
<path style=" stroke:none;fill-rule:nonzero;fill:rgb(46.27451%,58.823529%,52.941176%);fill-opacity:1;" d="M 295.660156 42.957031 L 145.414062 211.84375 L 145.414062 379.511719 L 366.597656 379.511719 L 366.585938 211.84375 L 295.660156 132.136719 L 275.964844 154.261719 L 338.738281 224.816406 L 338.738281 348.203125 L 173.242188 348.203125 L 173.242188 224.800781 L 295.660156 87.242188 L 394.8125 198.691406 L 394.8125 379.511719 L 422.6875 379.511719 L 422.6875 185.730469 Z M 216.320312 42.957031 L 89.308594 185.730469 L 89.308594 379.511719 L 117.167969 379.511719 L 117.167969 198.691406 L 236.015625 65.097656 Z M 216.320312 42.957031 "/>
</g>
</g>
</svg>
